<?xml version="1.0" encoding="UTF-8" standalone="no"?>
<svg
   xmlns:dc="http://purl.org/dc/elements/1.1/"
   xmlns:cc="http://creativecommons.org/ns#"
   xmlns:rdf="http://www.w3.org/1999/02/22-rdf-syntax-ns#"
   xmlns:svg="http://www.w3.org/2000/svg"
   xmlns="http://www.w3.org/2000/svg"
   xmlns:sodipodi="http://sodipodi.sourceforge.net/DTD/sodipodi-0.dtd"
   xmlns:inkscape="http://www.inkscape.org/namespaces/inkscape"
   version="1.1"
   id="Capa_1"
   x="0px"
   y="0px"
   viewBox="0 0 466 466"
   style="enable-background:new 0 0 466 466;"
   xml:space="preserve"
   width="512px"
   height="512px"
   class=""
   sodipodi:docname="christian-cross.svg"
   inkscape:version="0.92.4 (5da689c313, 2019-01-14)"><metadata
   id="metadata1205"><rdf:RDF><cc:Work
       rdf:about=""><dc:format>image/svg+xml</dc:format><dc:type
         rdf:resource="http://purl.org/dc/dcmitype/StillImage" /></cc:Work></rdf:RDF></metadata><defs
   id="defs1203" /><sodipodi:namedview
   pagecolor="#ffffff"
   bordercolor="#666666"
   borderopacity="1"
   objecttolerance="10"
   gridtolerance="10"
   guidetolerance="10"
   inkscape:pageopacity="0"
   inkscape:pageshadow="2"
   inkscape:window-width="1366"
   inkscape:window-height="710"
   id="namedview1201"
   showgrid="false"
   inkscape:zoom="0.4609375"
   inkscape:cx="253.83051"
   inkscape:cy="256"
   inkscape:window-x="0"
   inkscape:window-y="28"
   inkscape:window-maximized="1"
   inkscape:current-layer="Capa_1" /><g
   id="cross"
   inkscape:label="#g1198"><path
     d="M378.548,97.417h-34.976h-50.945V8c0-4.418-3.582-8-8-8h-34.976h-68.278c-4.418,0-8,3.582-8,8v89.417H87.452  c-4.418,0-8,3.582-8,8v68.278c0,4.418,3.582,8,8,8h85.921V458c0,4.418,3.582,8,8,8h68.278h34.976c4.418,0,8-3.582,8-8V181.695  h50.945h34.976c4.418,0,8-3.582,8-8v-68.278C386.548,100.999,382.966,97.417,378.548,97.417z M276.627,97.417h-18.976V16h18.976  V97.417z M276.627,450h-18.976V181.695h18.976V450z M284.627,165.695h-34.976c-4.418,0-8,3.582-8,8V450h-52.278V173.695  c0-4.418-3.582-8-8-8H95.452v-52.278h85.921c4.418,0,8-3.582,8-8V16h52.278v89.417c0,4.418,3.582,8,8,8h34.976h50.945v52.278  H284.627z M370.548,165.695h-18.976v-52.278h18.976V165.695z"
     data-original="#000000"
     class="active-path"
     data-old_color="#F9F9F9"
     fill="#FBFBFB"
     id="path1196" /></g> </svg>