<?xml version="1.0" encoding="utf-8"?>
<!-- Generator: Adobe Illustrator 21.0.0, SVG Export Plug-In . SVG Version: 6.00 Build 0)  -->
<svg version="1.1" id="Layer_1" xmlns="http://www.w3.org/2000/svg" xmlns:xlink="http://www.w3.org/1999/xlink" x="0px" y="0px"
	 width="300px" height="300px" viewBox="0 0 300 300" style="enable-background:new 0 0 300 300;" xml:space="preserve">
<style type="text/css">
	.st0{fill:#4D4D4D;}
</style>
<g>
	<path class="st0" d="M255.4,189l13.3-67.5c0.8-3.8-1.7-7.5-5.6-8.3c-3.8-0.8-7.5,1.7-8.3,5.6l-12.2,61.8h-17.9
		c2.6-0.6,4.9-1.9,6.8-3.8c2.7-2.7,4.2-6.3,4.2-10.1l0.1-48.4c0-7.9-6.4-14.4-14.4-14.3l-13.1,0.1c-7.9,0.1-14.3,6.6-14.2,14.5
		l0.2,10.9l12.5-13.9l-12.9,23.1h-29.3c-4.7,0-8.5,3.8-8.5,8.5s3.8,8.5,8.5,8.5h34.3c3.1,0,5.9-1.7,7.4-4.4l13.2-23.7
		c-1.9,9.1-4.7,18-7.9,26.3c-1.4,3.6-4.6,6.4-8.9,7.1l-31.5-0.1c-3.3,0-6.5,1.6-8.5,4.5c-1.9,2.8-2.3,6.4-1.1,9.5l23.2,58.6
		c2.1,5.3,8,7.8,13.3,5.7c5.2-2.1,7.8-8,5.7-13.3l-3-7.5l9.2-23.9h26.8l16.3,42.3c0.9,2.4,3.7,3.6,6.1,2.7c2.4-0.9,3.6-3.7,2.7-6.1
		l-15-38.9h1.2C251.9,194.7,254.8,192.3,255.4,189z M196.1,205.7l-9.6-24.2h9.2c-2.2,1.2-3.7,3.5-3.7,6.2c0,3.9,3.2,7.1,7.1,7.1h1.2
		L196.1,205.7z"/>
	<circle class="st0" cx="204" cy="78.8" r="18.8"/>
	<path class="st0" d="M135.2,138.7h-29.3L93,115.6l12.5,13.9l0.2-10.9c0.1-7.9-6.2-14.4-14.2-14.5L78.4,104
		c-7.9,0-14.4,6.4-14.4,14.3l0.1,48.4c0,3.8,1.5,7.4,4.2,10.1c1.9,1.9,4.3,3.2,6.8,3.8H57.3l-12.2-61.8c-0.8-3.8-4.5-6.3-8.3-5.6
		c-3.8,0.8-6.3,4.5-5.6,8.3L44.6,189c0.6,3.3,3.5,5.7,6.9,5.7h1.2l-15,38.9c-0.9,2.4,0.3,5.1,2.7,6.1c2.4,0.9,5.1-0.3,6.1-2.7
		l16.3-42.3h26.8l9.2,23.9l-3,7.5c-2.1,5.2,0.5,11.2,5.7,13.3s11.2-0.5,13.3-5.7l23.2-58.6c1.2-3.2,0.9-6.7-1.1-9.5
		c-1.9-2.8-5.1-4.5-8.4-4.5l0,0C95.1,161,97.2,161,96.8,161c-4.1-0.7-7.3-3.5-8.7-7.1l-7.9-26.3l13.2,23.7c1.5,2.7,4.4,4.4,7.4,4.4
		h34.3c4.7,0,8.5-3.8,8.5-8.5C143.7,142.5,139.9,138.7,135.2,138.7z M100.9,194.7c3.9,0,7.1-3.2,7.1-7.1c0-2.7-1.5-5-3.7-6.2h9.2
		l-9.6,24.2l-4.2-11L100.9,194.7L100.9,194.7z"/>
	<circle class="st0" cx="96" cy="78.8" r="18.8"/>
</g>
</svg>
